<?xml version="1.0" encoding="UTF-8"?>
<!DOCTYPE svg PUBLIC "-//W3C//DTD SVG 1.1//EN" "http://www.w3.org/Graphics/SVG/1.1/DTD/svg11.dtd">
<svg xmlns="http://www.w3.org/2000/svg" version="1.1" width="100px" height="100px" style="shape-rendering:geometricPrecision; text-rendering:geometricPrecision; image-rendering:optimizeQuality; fill-rule:evenodd; clip-rule:evenodd" xmlns:xlink="http://www.w3.org/1999/xlink">
<g><path style="opacity:0.776" fill="#396269" d="M 8.5,4.5 C 8.02694,5.90632 7.02694,6.57298 5.5,6.5C 5.97306,5.09368 6.97306,4.42702 8.5,4.5 Z"/></g>
<g><path style="opacity:1" fill="#69c4d9" d="M 8.5,4.5 C 25.5,4.5 42.5,4.5 59.5,4.5C 59.5,4.83333 59.5,5.16667 59.5,5.5C 55.1539,5.33432 50.8206,5.50098 46.5,6C 40.5,10.6667 34.5,15.3333 28.5,20C 26.5,20.3333 24.5,20.6667 22.5,21C 24.0581,21.21 25.3915,21.71 26.5,22.5C 21.3421,21.3312 18.3421,23.3312 17.5,28.5C 18.3421,33.6688 21.3421,35.6688 26.5,34.5C 24.337,35.4691 22.0037,36.3024 19.5,37C 22.0356,37.1862 24.369,37.6862 26.5,38.5C 23.8333,38.5 21.1667,38.5 18.5,38.5C 18.5,48.5 18.5,58.5 18.5,68.5C 17.5119,63.3595 17.1786,58.0262 17.5,52.5C 17.8266,47.7863 17.4933,43.1196 16.5,38.5C 12.7364,41.6107 8.73635,44.2774 4.5,46.5C 4.5,33.8333 4.5,21.1667 4.5,8.5C 4.32842,7.50838 4.66175,6.84171 5.5,6.5C 7.02694,6.57298 8.02694,5.90632 8.5,4.5 Z"/></g>
<g><path style="opacity:1" fill="#5cbfd9" d="M 59.5,5.5 C 61.5273,5.33788 63.5273,5.50454 65.5,6C 59.3102,12.6901 52.6435,18.8568 45.5,24.5C 47.6309,25.1687 49.6309,25.8354 51.5,26.5C 48.5525,26.2229 45.7191,26.5562 43,27.5C 42.5017,30.8168 42.335,34.1501 42.5,37.5C 41.6787,34.3586 41.1787,31.0252 41,27.5C 40.6667,30.5 40.3333,33.5 40,36.5C 37.3557,38.31 34.8557,40.31 32.5,42.5C 31.8182,41.7573 31.1515,41.0906 30.5,40.5C 29.3951,39.3995 28.0618,38.7329 26.5,38.5C 24.369,37.6862 22.0356,37.1862 19.5,37C 22.0037,36.3024 24.337,35.4691 26.5,34.5C 30.1684,32.6081 31.3351,29.6081 30,25.5C 28.9609,24.2899 27.7942,23.2899 26.5,22.5C 25.3915,21.71 24.0581,21.21 22.5,21C 24.5,20.6667 26.5,20.3333 28.5,20C 34.5,15.3333 40.5,10.6667 46.5,6C 50.8206,5.50098 55.1539,5.33432 59.5,5.5 Z"/></g>
<g><path style="opacity:1" fill="#52bcdc" d="M 59.5,5.5 C 59.5,5.16667 59.5,4.83333 59.5,4.5C 69.5056,4.33352 79.5056,4.50019 89.5,5C 78.6667,13.8333 67.8333,22.6667 57,31.5C 56.6667,30.8333 56.3333,30.1667 56,29.5C 55.8227,33.3563 55.3227,37.023 54.5,40.5C 54.6655,36.4862 54.4988,32.4862 54,28.5C 53.2917,27.6195 52.4584,26.9528 51.5,26.5C 49.6309,25.8354 47.6309,25.1687 45.5,24.5C 52.6435,18.8568 59.3102,12.6901 65.5,6C 63.5273,5.50454 61.5273,5.33788 59.5,5.5 Z"/></g>
<g><path style="opacity:1" fill="#44acce" d="M 8.5,4.5 C 35.6636,3.33639 62.9969,3.16973 90.5,4C 91.4158,4.27842 92.0825,4.77842 92.5,5.5C 94.2994,9.90316 94.966,14.5698 94.5,19.5C 93.8386,18.2825 93.1719,16.9492 92.5,15.5C 87.4566,19.5539 82.4566,23.5539 77.5,27.5C 69.0698,26.6871 66.0698,30.3538 68.5,38.5C 67.2113,37.4991 65.8779,37.6658 64.5,39C 62.0934,41.2848 59.5934,43.4514 57,45.5C 56.6667,44.5 56.3333,43.5 56,42.5C 55.7216,43.4158 55.2216,44.0825 54.5,44.5C 54.5,43.1667 54.5,41.8333 54.5,40.5C 55.3227,37.023 55.8227,33.3563 56,29.5C 56.3333,30.1667 56.6667,30.8333 57,31.5C 67.8333,22.6667 78.6667,13.8333 89.5,5C 79.5056,4.50019 69.5056,4.33352 59.5,4.5C 42.5,4.5 25.5,4.5 8.5,4.5 Z"/></g>
<g><path style="opacity:1" fill="#f6fbfc" d="M 26.5,22.5 C 27.7942,23.2899 28.9609,24.2899 30,25.5C 31.3351,29.6081 30.1684,32.6081 26.5,34.5C 21.3421,35.6688 18.3421,33.6688 17.5,28.5C 18.3421,23.3312 21.3421,21.3312 26.5,22.5 Z"/></g>
<g><path style="opacity:1" fill="#e4f5f7" d="M 51.5,26.5 C 52.4584,26.9528 53.2917,27.6195 54,28.5C 54.4988,32.4862 54.6655,36.4862 54.5,40.5C 54.5,41.8333 54.5,43.1667 54.5,44.5C 53.8379,48.4659 53.5045,52.4659 53.5,56.5C 50.5,56.5 47.5,56.5 44.5,56.5C 43.5052,50.2197 42.8385,43.8864 42.5,37.5C 42.335,34.1501 42.5017,30.8168 43,27.5C 45.7191,26.5562 48.5525,26.2229 51.5,26.5 Z"/></g>
<g><path style="opacity:1" fill="#cdedf1" d="M 77.5,27.5 C 81.2603,29.9485 82.2603,33.2818 80.5,37.5C 79.3077,39.9223 77.3077,40.9223 74.5,40.5C 72.1595,40.6369 70.1595,39.9702 68.5,38.5C 66.0698,30.3538 69.0698,26.6871 77.5,27.5 Z"/></g>
<g><path style="opacity:1" fill="#4cb8db" d="M 42.5,37.5 C 42.8385,43.8864 43.5052,50.2197 44.5,56.5C 42.5197,55.1525 41.353,53.1525 41,50.5C 38.1702,53.1885 35.0036,55.1885 31.5,56.5C 31.5,55.8333 31.1667,55.5 30.5,55.5C 30.5,50.5 30.5,45.5 30.5,40.5C 31.1515,41.0906 31.8182,41.7573 32.5,42.5C 34.8557,40.31 37.3557,38.31 40,36.5C 40.3333,33.5 40.6667,30.5 41,27.5C 41.1787,31.0252 41.6787,34.3586 42.5,37.5 Z"/></g>
<g><path style="opacity:1" fill="#f2fafb" d="M 26.5,38.5 C 28.0618,38.7329 29.3951,39.3995 30.5,40.5C 30.5,45.5 30.5,50.5 30.5,55.5C 30.5,61.1667 30.5,66.8333 30.5,72.5C 29.5,72.5 28.5,72.5 27.5,72.5C 25.1432,72.6633 22.8098,72.4966 20.5,72C 19.1772,71.1841 18.5106,70.0174 18.5,68.5C 18.5,58.5 18.5,48.5 18.5,38.5C 21.1667,38.5 23.8333,38.5 26.5,38.5 Z"/></g>
<g><path style="opacity:1" fill="#3fb2dd" d="M 68.5,38.5 C 70.1595,39.9702 72.1595,40.6369 74.5,40.5C 77.3077,40.9223 79.3077,39.9223 80.5,37.5C 81.6448,38.7927 81.3115,39.9593 79.5,41C 71.3682,43.6117 64.3682,48.1117 58.5,54.5C 57.5745,55.6405 56.7412,55.6405 56,54.5C 55.6905,55.7659 55.1905,56.9326 54.5,58C 51.8333,58.3333 49.1667,58.6667 46.5,59C 48.0581,59.21 49.3915,59.71 50.5,60.5C 44.3441,60.3251 41.6775,63.3251 42.5,69.5C 41.6981,68.0484 41.1981,66.3817 41,64.5C 38.302,67.6354 35.302,69.6354 32,70.5C 31.5008,65.8452 31.3342,61.1785 31.5,56.5C 35.0036,55.1885 38.1702,53.1885 41,50.5C 41.353,53.1525 42.5197,55.1525 44.5,56.5C 47.5,56.5 50.5,56.5 53.5,56.5C 53.5045,52.4659 53.8379,48.4659 54.5,44.5C 55.2216,44.0825 55.7216,43.4158 56,42.5C 56.3333,43.5 56.6667,44.5 57,45.5C 59.5934,43.4514 62.0934,41.2848 64.5,39C 65.8779,37.6658 67.2113,37.4991 68.5,38.5 Z"/></g>
<g><path style="opacity:1" fill="#34b0e0" d="M 94.5,19.5 C 94.5,24.5 94.5,29.5 94.5,34.5C 93.8354,36.3691 93.1687,38.3691 92.5,40.5C 88.4293,43.8518 84.4293,47.1851 80.5,50.5C 77.1632,49.2609 73.8299,49.2609 70.5,50.5C 69.1616,54.2624 67.8283,57.9291 66.5,61.5C 65.7494,60.4265 64.7494,60.2599 63.5,61C 60.2355,63.7914 57.5688,66.2914 55.5,68.5C 56.2686,64.2754 54.6019,61.6087 50.5,60.5C 49.3915,59.71 48.0581,59.21 46.5,59C 49.1667,58.6667 51.8333,58.3333 54.5,58C 55.1905,56.9326 55.6905,55.7659 56,54.5C 56.7412,55.6405 57.5745,55.6405 58.5,54.5C 64.3682,48.1117 71.3682,43.6117 79.5,41C 81.3115,39.9593 81.6448,38.7927 80.5,37.5C 82.2603,33.2818 81.2603,29.9485 77.5,27.5C 82.4566,23.5539 87.4566,19.5539 92.5,15.5C 93.1719,16.9492 93.8386,18.2825 94.5,19.5 Z"/></g>
<g><path style="opacity:1" fill="#56bedb" d="M 17.5,52.5 C 14.2285,56.6017 10.3951,60.2683 6,63.5C 5.66667,65.1667 5.33333,66.8333 5,68.5C 4.50034,61.1742 4.33368,53.8409 4.5,46.5C 8.73635,44.2774 12.7364,41.6107 16.5,38.5C 17.4933,43.1196 17.8266,47.7863 17.5,52.5 Z"/></g>
<g><path style="opacity:1" fill="#c9ebf0" d="M 80.5,50.5 C 81.3591,56.1339 80.1924,61.4673 77,66.5C 75.871,68.1412 74.371,69.1412 72.5,69.5C 70.2075,69.7564 68.0408,69.4231 66,68.5C 65.9822,66.2028 66.1489,63.8695 66.5,61.5C 67.8283,57.9291 69.1616,54.2624 70.5,50.5C 73.8299,49.2609 77.1632,49.2609 80.5,50.5 Z"/></g>
<g><path style="opacity:1" fill="#1ea5df" d="M 94.5,34.5 C 94.5,42.1667 94.5,49.8333 94.5,57.5C 93.8339,60.6893 93.1672,64.0227 92.5,67.5C 81.6428,76.1913 70.6428,84.6913 59.5,93C 69.3949,94.4495 79.3949,94.9495 89.5,94.5C 62.8333,95.8333 36.1667,95.8333 9.5,94.5C 15.0262,94.8214 20.3595,94.4881 25.5,93.5C 32.9472,93.9286 40.2806,93.4286 47.5,92C 55.7877,86.0474 63.7877,79.7141 71.5,73C 70.3774,71.9563 69.0441,71.2896 67.5,71C 69.3817,70.8019 71.0484,70.3019 72.5,69.5C 74.371,69.1412 75.871,68.1412 77,66.5C 80.1924,61.4673 81.3591,56.1339 80.5,50.5C 84.4293,47.1851 88.4293,43.8518 92.5,40.5C 93.1687,38.3691 93.8354,36.3691 94.5,34.5 Z"/></g>
<g><path style="opacity:1" fill="#44a8c9" d="M 4.5,8.5 C 4.5,21.1667 4.5,33.8333 4.5,46.5C 4.33368,53.8409 4.50034,61.1742 5,68.5C 5.33333,66.8333 5.66667,65.1667 6,63.5C 10.3951,60.2683 14.2285,56.6017 17.5,52.5C 17.1786,58.0262 17.5119,63.3595 18.5,68.5C 18.5106,70.0174 19.1772,71.1841 20.5,72C 22.8098,72.4966 25.1432,72.6633 27.5,72.5C 23.9596,74.8916 20.793,74.5583 18,71.5C 17.7265,73.3289 16.8932,74.8289 15.5,76C 9.25967,78.7092 5.593,83.2092 4.5,89.5C 4.16667,89.5 3.83333,89.5 3.5,89.5C 3.16878,62.3282 3.50212,35.3282 4.5,8.5 Z"/></g>
<g><path style="opacity:1" fill="#dcf2f5" d="M 50.5,60.5 C 54.6019,61.6087 56.2686,64.2754 55.5,68.5C 55.5,68.8333 55.5,69.1667 55.5,69.5C 51.1345,74.7307 46.8012,74.7307 42.5,69.5C 41.6775,63.3251 44.3441,60.3251 50.5,60.5 Z"/></g>
<g><path style="opacity:0.761" fill="#1e536e" d="M 92.5,5.5 C 94.9406,7.07455 96.1072,9.40788 96,12.5C 96.8147,38.2091 96.6481,63.8758 95.5,89.5C 95.1667,89.5 94.8333,89.5 94.5,89.5C 94.5,78.8333 94.5,68.1667 94.5,57.5C 94.5,49.8333 94.5,42.1667 94.5,34.5C 94.5,29.5 94.5,24.5 94.5,19.5C 94.966,14.5698 94.2994,9.90316 92.5,5.5 Z"/></g>
<g><path style="opacity:1" fill="#14a6e7" d="M 94.5,57.5 C 94.5,68.1667 94.5,78.8333 94.5,89.5C 94.5,90.1667 94.5,90.8333 94.5,91.5C 94.5,91.8333 94.5,92.1667 94.5,92.5C 94.1667,92.5 93.8333,92.5 93.5,92.5C 92.3951,93.6005 91.0618,94.2671 89.5,94.5C 79.3949,94.9495 69.3949,94.4495 59.5,93C 70.6428,84.6913 81.6428,76.1913 92.5,67.5C 93.1672,64.0227 93.8339,60.6893 94.5,57.5 Z"/></g>
<g><path style="opacity:1" fill="#26abe3" d="M 66.5,61.5 C 66.1489,63.8695 65.9822,66.2028 66,68.5C 68.0408,69.4231 70.2075,69.7564 72.5,69.5C 71.0484,70.3019 69.3817,70.8019 67.5,71C 69.0441,71.2896 70.3774,71.9563 71.5,73C 63.7877,79.7141 55.7877,86.0474 47.5,92C 40.2806,93.4286 32.9472,93.9286 25.5,93.5C 24.448,93.6495 23.448,93.4828 22.5,93C 30.3087,87.3585 37.9754,81.5252 45.5,75.5C 48.5564,74.8038 51.5564,73.9704 54.5,73C 55.3366,71.9887 55.67,70.8221 55.5,69.5C 55.5,69.1667 55.5,68.8333 55.5,68.5C 57.5688,66.2914 60.2355,63.7914 63.5,61C 64.7494,60.2599 65.7494,60.4265 66.5,61.5 Z"/></g>
<g><path style="opacity:1" fill="#37b1df" d="M 30.5,55.5 C 31.1667,55.5 31.5,55.8333 31.5,56.5C 31.3342,61.1785 31.5008,65.8452 32,70.5C 35.302,69.6354 38.302,67.6354 41,64.5C 41.1981,66.3817 41.6981,68.0484 42.5,69.5C 46.8012,74.7307 51.1345,74.7307 55.5,69.5C 55.67,70.8221 55.3366,71.9887 54.5,73C 51.5564,73.9704 48.5564,74.8038 45.5,75.5C 37.9754,81.5252 30.3087,87.3585 22.5,93C 23.448,93.4828 24.448,93.6495 25.5,93.5C 20.3595,94.4881 15.0262,94.8214 9.5,94.5C 8.39105,94.4431 7.39105,94.1098 6.5,93.5C 5.83333,93.5 5.5,93.1667 5.5,92.5C 4.89022,91.609 4.55688,90.609 4.5,89.5C 5.593,83.2092 9.25967,78.7092 15.5,76C 16.8932,74.8289 17.7265,73.3289 18,71.5C 20.793,74.5583 23.9596,74.8916 27.5,72.5C 28.5,72.5 29.5,72.5 30.5,72.5C 30.5,66.8333 30.5,61.1667 30.5,55.5 Z"/></g>
<g><path style="opacity:0.005" fill="#020609" d="M 3.5,89.5 C 3.83333,89.5 4.16667,89.5 4.5,89.5C 4.55688,90.609 4.89022,91.609 5.5,92.5C 2.7386,93.3498 2.07193,92.3498 3.5,89.5 Z"/></g>
<g><path style="opacity:0.02" fill="#060f14" d="M 94.5,89.5 C 94.8333,89.5 95.1667,89.5 95.5,89.5C 96.625,90.6522 96.625,91.6522 95.5,92.5C 95.5,91.8333 95.1667,91.5 94.5,91.5C 94.5,90.8333 94.5,90.1667 94.5,89.5 Z"/></g>
<g><path style="opacity:0.012" fill="#000000" d="M 94.5,92.5 C 94.8333,92.5 95.1667,92.5 95.5,92.5C 95.3147,93.1701 94.9813,93.1701 94.5,92.5 Z"/></g>
<g><path style="opacity:0.029" fill="#000102" d="M 93.5,92.5 C 93.5,93.1667 93.8333,93.5 94.5,93.5C 94.0629,95.0744 93.0629,96.2411 91.5,97C 63.8333,97.6667 36.1667,97.6667 8.5,97C 6.06143,96.4666 5.39477,95.3 6.5,93.5C 7.39105,94.1098 8.39105,94.4431 9.5,94.5C 36.1667,95.8333 62.8333,95.8333 89.5,94.5C 91.0618,94.2671 92.3951,93.6005 93.5,92.5 Z"/></g>
</svg>
